<svg width="23" height="23" viewBox="0 0 23 23" fill="none" xmlns="http://www.w3.org/2000/svg">
<path d="M20.8438 20.125C20.5983 20.124 20.355 20.0798 20.125 19.9942V19.9899C19.7883 19.8471 19.484 19.6377 19.2304 19.3742C18.9768 19.1107 18.7792 18.7987 18.6494 18.4568C18.6041 18.3127 18.5133 18.1872 18.3905 18.0992C18.2678 18.0111 18.1198 17.9654 17.9688 17.9687C17.8181 17.9698 17.6715 18.0177 17.5493 18.1057C17.4271 18.1938 17.3353 18.3178 17.2867 18.4604C17.1273 18.924 16.8338 19.3297 16.4433 19.6261C16.0529 19.9225 15.5831 20.0962 15.0938 20.125C14.6037 20.0962 14.1333 19.9221 13.7425 19.625C13.3518 19.3279 13.0582 18.9213 12.8994 18.4568C12.8521 18.3139 12.7608 18.1897 12.6385 18.102C12.5162 18.0143 12.3692 17.9677 12.2188 17.9687C12.0681 17.9698 11.9215 18.0177 11.7993 18.1057C11.6771 18.1938 11.5853 18.3178 11.5367 18.4604C11.3773 18.924 11.0838 19.3297 10.6933 19.6261C10.3029 19.9225 9.83312 20.0962 9.34375 20.125C8.8537 20.0962 8.38332 19.9221 7.99254 19.625C7.60175 19.3279 7.30824 18.9213 7.14941 18.4568C7.1011 18.3141 7.00922 18.1903 6.88673 18.1027C6.76424 18.0151 6.61733 17.9682 6.46674 17.9686C6.31615 17.969 6.16949 18.0166 6.04746 18.1049C5.92543 18.1931 5.83421 18.3175 5.78666 18.4604C5.62733 18.924 5.33379 19.3297 4.94333 19.6261C4.55287 19.9225 4.08312 20.0962 3.59375 20.125H1.4375V21.5625H3.59375C4.15155 21.5675 4.70267 21.4408 5.20225 21.1927C5.70184 20.9445 6.13577 20.5819 6.46875 20.1343C6.80525 20.5781 7.23991 20.9379 7.73869 21.1857C8.23747 21.4334 8.78683 21.5623 9.34375 21.5623C9.90067 21.5623 10.45 21.4334 10.9488 21.1857C11.4476 20.9379 11.8822 20.5781 12.2188 20.1343C12.5553 20.5781 12.9899 20.9379 13.4887 21.1857C13.9875 21.4334 14.5368 21.5623 15.0938 21.5623C15.6507 21.5623 16.2 21.4334 16.6988 21.1857C17.1976 20.9379 17.6322 20.5781 17.9688 20.1343C18.3689 20.6516 18.8992 21.0534 19.5054 21.2987C19.9295 21.4748 20.3845 21.5645 20.8438 21.5625H21.5625V20.125H20.8438ZM20.125 9.79655L21.3878 10.7812L22.2812 9.65136L11.9399 1.5913C11.8123 1.49187 11.6552 1.43787 11.4935 1.43787C11.3318 1.43787 11.1747 1.49187 11.0472 1.5913L0.71875 9.64489L1.61216 10.7748L2.875 9.79008V13.519C2.60559 14.1704 2.08854 14.6882 1.4375 14.9586V16.4565C2.29732 16.2836 3.06422 15.8022 3.59375 15.1031C3.93025 15.5468 4.36491 15.9067 4.86369 16.1544C5.36247 16.4022 5.91183 16.5311 6.46875 16.5311C7.02567 16.5311 7.57503 16.4022 8.07381 16.1544C8.57259 15.9067 9.00725 15.5468 9.34375 15.1031C9.68025 15.5468 10.1149 15.9067 10.6137 16.1544C11.1125 16.4022 11.6618 16.5311 12.2188 16.5311C12.7757 16.5311 13.325 16.4022 13.8238 16.1544C14.3226 15.9067 14.7572 15.5468 15.0938 15.1031C15.4267 15.5506 15.8607 15.9132 16.3602 16.1614C16.8598 16.4096 17.4109 16.5363 17.9688 16.5312H21.5625V15.0937H20.125V9.79655ZM15.7758 13.4284C15.7283 13.2855 15.6371 13.1612 15.515 13.0729C15.393 12.9847 15.2464 12.937 15.0958 12.9366C14.9452 12.9362 14.7983 12.9831 14.6758 13.0707C14.5533 13.1583 14.4614 13.2822 14.4131 13.4248C14.2544 13.8894 13.9609 14.2963 13.5701 14.5935C13.1793 14.8907 12.7089 15.0649 12.2188 15.0937C11.7294 15.0649 11.2596 14.8913 10.8692 14.5949C10.4787 14.2985 10.1852 13.8927 10.0258 13.4291C9.97722 13.2865 9.88544 13.1626 9.76322 13.0745C9.641 12.9864 9.4944 12.9385 9.34375 12.9375C9.19327 12.9364 9.04631 12.9831 8.92401 13.0708C8.80171 13.1584 8.71036 13.2826 8.66309 13.4255C8.50426 13.89 8.21075 14.2967 7.81996 14.5938C7.42918 14.8909 6.9588 15.0649 6.46875 15.0937C5.9944 15.0718 5.53698 14.9108 5.15335 14.631C4.76973 14.3511 4.47682 13.9647 4.31106 13.5197L4.3125 8.66955L11.4935 3.07049L18.6875 8.67674L18.6889 15.0937H17.9688C17.4794 15.0649 17.0096 14.8913 16.6192 14.5949C16.2287 14.2985 15.9352 13.892 15.7758 13.4284Z" fill="black"/>
</svg>
