<svg width="24" height="24" viewBox="0 0 24 24" fill="none" xmlns="http://www.w3.org/2000/svg">
<path d="M16 5C16 4.068 16 3.602 16.152 3.235C16.2525 2.99218 16.3999 2.77155 16.5857 2.58572C16.7716 2.3999 16.9922 2.25251 17.235 2.152C17.602 2 18.068 2 19 2C19.932 2 20.398 2 20.765 2.152C21.0078 2.25251 21.2284 2.3999 21.4143 2.58572C21.6001 2.77155 21.7475 2.99218 21.848 3.235C22 3.602 22 4.068 22 5V9C22 9.932 22 10.398 21.848 10.765C21.7475 11.0078 21.6001 11.2284 21.4143 11.4143C21.2284 11.6001 21.0078 11.7475 20.765 11.848C20.398 12 19.932 12 19 12C18.068 12 17.602 12 17.235 11.848C16.9922 11.7475 16.7716 11.6001 16.5857 11.4143C16.3999 11.2284 16.2525 11.0078 16.152 10.765C16 10.398 16 9.932 16 9V5ZM16 19C16 18.068 16 17.602 16.152 17.235C16.2525 16.9922 16.3999 16.7716 16.5857 16.5857C16.7716 16.3999 16.9922 16.2525 17.235 16.152C17.602 16 18.068 16 19 16C19.932 16 20.398 16 20.765 16.152C21.0078 16.2525 21.2284 16.3999 21.4143 16.5857C21.6001 16.7716 21.7475 16.9922 21.848 17.235C22 17.602 22 18.068 22 19C22 19.932 22 20.398 21.848 20.765C21.7475 21.0078 21.6001 21.2284 21.4143 21.4143C21.2284 21.6001 21.0078 21.7475 20.765 21.848C20.398 22 19.932 22 19 22C18.068 22 17.602 22 17.235 21.848C16.9922 21.7475 16.7716 21.6001 16.5857 21.4143C16.3999 21.2284 16.2525 21.0078 16.152 20.765C16 20.398 16 19.932 16 19ZM2 16C2 14.114 2 13.172 2.586 12.586C3.172 12 4.114 12 6 12H8C9.886 12 10.828 12 11.414 12.586C12 13.172 12 14.114 12 16V18C12 19.886 12 20.828 11.414 21.414C10.828 22 9.886 22 8 22H6C4.114 22 3.172 22 2.586 21.414C2 20.828 2 19.886 2 18V16ZM2 5C2 4.068 2 3.602 2.152 3.235C2.25251 2.99218 2.3999 2.77155 2.58572 2.58572C2.77155 2.3999 2.99218 2.25251 3.235 2.152C3.602 2 4.068 2 5 2H9C9.932 2 10.398 2 10.765 2.152C11.0078 2.25251 11.2284 2.3999 11.4143 2.58572C11.6001 2.77155 11.7475 2.99218 11.848 3.235C12 3.602 12 4.068 12 5C12 5.932 12 6.398 11.848 6.765C11.7475 7.00782 11.6001 7.22845 11.4143 7.41428C11.2284 7.6001 11.0078 7.74749 10.765 7.848C10.398 8 9.932 8 9 8H5C4.068 8 3.602 8 3.235 7.848C2.99218 7.74749 2.77155 7.6001 2.58572 7.41428C2.3999 7.22845 2.25251 7.00782 2.152 6.765C2 6.398 2 5.932 2 5Z" stroke="white" stroke-width="1.5" stroke-linecap="round" stroke-linejoin="round"/>
</svg>
