<svg width="24" height="24" viewBox="0 0 24 24" fill="none" xmlns="http://www.w3.org/2000/svg">
<path d="M20.7738 18C21.5238 18 22.1188 17.529 22.6538 16.87C23.7498 15.52 21.9508 14.44 21.2648 13.913C20.5678 13.376 19.7888 13.071 18.9998 13M17.9998 11C18.6628 11 19.2987 10.7366 19.7675 10.2678C20.2364 9.79893 20.4998 9.16304 20.4998 8.5C20.4998 7.83696 20.2364 7.20107 19.7675 6.73223C19.2987 6.26339 18.6628 6 17.9998 6M3.22578 18C2.47578 18 1.88078 17.529 1.34578 16.87C0.249781 15.52 2.04878 14.44 2.73478 13.913C3.43178 13.376 4.20978 13.07 4.99978 13M5.49978 11C4.83674 11 4.20086 10.7366 3.73201 10.2678C3.26317 9.79893 2.99978 9.16304 2.99978 8.5C2.99978 7.83696 3.26317 7.20107 3.73201 6.73223C4.20086 6.26339 4.83674 6 5.49978 6M8.08378 15.111C7.06178 15.743 4.38278 17.033 6.01378 18.647C6.81278 19.436 7.69978 20 8.81678 20H15.1848C16.3018 20 17.1888 19.436 17.9858 18.647C19.6178 17.033 16.9388 15.743 15.9168 15.111C14.7396 14.385 13.3838 14.0005 12.0008 14.0005C10.6177 14.0005 9.26194 14.385 8.08478 15.111M15.4998 7.5C15.4998 7.95963 15.4093 8.41475 15.2334 8.83939C15.0575 9.26403 14.7997 9.64987 14.4747 9.97487C14.1496 10.2999 13.7638 10.5577 13.3392 10.7336C12.9145 10.9095 12.4594 11 11.9998 11C11.5402 11 11.085 10.9095 10.6604 10.7336C10.2357 10.5577 9.84991 10.2999 9.52491 9.97487C9.1999 9.64987 8.94209 9.26403 8.7662 8.83939C8.59031 8.41475 8.49978 7.95963 8.49978 7.5C8.49978 6.57174 8.86853 5.6815 9.52491 5.02513C10.1813 4.36875 11.0715 4 11.9998 4C12.928 4 13.8183 4.36875 14.4747 5.02513C15.131 5.6815 15.4998 6.57174 15.4998 7.5Z" stroke="black" stroke-width="1.5" stroke-linecap="round" stroke-linejoin="round"/>
</svg>
